HIERARCHY
ROOT Hips
{
	OFFSET 0.000000 0.000000 0.000000
	CHANNELS 6 Xposition Yposition Zposition Zrotation Yrotation Xrotation 
	JOINT LHipJoint
	{
		OFFSET 0.000000 0.000000 0.000000
		CHANNELS 3 Zrotation Yrotation Xrotation
		JOINT LeftUpLeg
		{
			OFFSET 1.363060 -1.794630 0.839290
			CHANNELS 3 Zrotation Yrotation Xrotation
			JOINT LeftLeg
			{
				OFFSET 2.448110 -6.726130 0.000000
				CHANNELS 3 Zrotation Yrotation Xrotation
				JOINT LeftFoot
				{
					OFFSET 2.562200 -7.039590 0.000000
					CHANNELS 3 Zrotation Yrotation Xrotation
					JOINT LeftToeBase
					{
						OFFSET 0.157640 -0.433110 2.322550
						CHANNELS 3 Zrotation Yrotation Xrotation
						End Site
						{
							OFFSET 0.000000 0.000000 0.000000
						}
					}
				}
			}
		}
	}
	JOINT RHipJoint
	{
		OFFSET 0.000000 0.000000 0.000000
		CHANNELS 3 Zrotation Yrotation Xrotation
		JOINT RightUpLeg
		{
			OFFSET -1.305520 -1.794630 0.839290
			CHANNELS 3 Zrotation Yrotation Xrotation
			JOINT RightLeg
			{
				OFFSET -2.542530 -6.985550 0.000000
				CHANNELS 3 Zrotation Yrotation Xrotation
				JOINT RightFoot
				{
					OFFSET -2.568260 -7.056230 0.000000
					CHANNELS 3 Zrotation Yrotation Xrotation
					JOINT RightToeBase
					{
						OFFSET -0.164730 -0.452590 2.363150
						CHANNELS 3 Zrotation Yrotation Xrotation
						End Site
						{
							OFFSET 0.000000 0.000000 0.000000
						}
					}
				}
			}
		}
	}
	JOINT LowerBack
	{
		OFFSET 0.000000 0.000000 0.000000
		CHANNELS 3 Zrotation Yrotation Xrotation
		JOINT Spine
		{
			OFFSET 0.028270 2.035590 -0.193380
			CHANNELS 3 Zrotation Yrotation Xrotation
			JOINT Spine1
			{
				OFFSET 0.056720 2.048850 -0.042750
				CHANNELS 3 Zrotation Yrotation Xrotation
				JOINT Neck
				{
					OFFSET 0.000000 0.000000 0.000000
					CHANNELS 3 Zrotation Yrotation Xrotation
					JOINT Neck1
					{
						OFFSET -0.054170 1.746240 0.172020
						CHANNELS 3 Zrotation Yrotation Xrotation
						JOINT Head
						{
							OFFSET 0.104070 1.761360 -0.123970
							CHANNELS 3 Zrotation Yrotation Xrotation
							End Site
							{
								OFFSET 0.000000 0.000000 0.000000
							}
						}
					}
				}
				JOINT LeftShoulder
				{
					OFFSET 0.000000 0.000000 0.000000
					CHANNELS 3 Zrotation Yrotation Xrotation
					JOINT LeftArm
					{
						OFFSET 3.362410 1.200890 -0.311210
						CHANNELS 3 Zrotation Yrotation Xrotation
						JOINT LeftForeArm
						{
							OFFSET 4.983000 -0.000000 -0.000000
							CHANNELS 3 Zrotation Yrotation Xrotation
							JOINT LeftHand
							{
								OFFSET 3.483560 -0.000000 -0.000000
								CHANNELS 3 Zrotation Yrotation Xrotation
								JOINT LeftFingerBase
								{
									OFFSET 0.000000 0.000000 0.000000
									CHANNELS 3 Zrotation Yrotation Xrotation
									JOINT LeftHandIndex1
									{
										OFFSET 0.715260 -0.000000 -0.000000
										CHANNELS 3 Zrotation Yrotation Xrotation
										End Site
										{
											OFFSET 0.000000 0.000000 0.000000
										}
									}
								}
								JOINT LThumb
								{
									OFFSET 0.000000 0.000000 0.000000
									CHANNELS 3 Zrotation Yrotation Xrotation
									End Site
									{
										OFFSET 0.000000 0.000000 0.000000
									}
								}
							}
						}
					}
				}
				JOINT RightShoulder
				{
					OFFSET 0.000000 0.000000 0.000000
					CHANNELS 3 Zrotation Yrotation Xrotation
					JOINT RightArm
					{
						OFFSET -3.136600 1.374050 -0.404650
						CHANNELS 3 Zrotation Yrotation Xrotation
						JOINT RightForeArm
						{
							OFFSET -5.241900 -0.000000 -0.000000
							CHANNELS 3 Zrotation Yrotation Xrotation
							JOINT RightHand
							{
								OFFSET -3.444170 -0.000000 -0.000000
								CHANNELS 3 Zrotation Yrotation Xrotation
								JOINT RightFingerBase
								{
									OFFSET 0.000000 0.000000 0.000000
									CHANNELS 3 Zrotation Yrotation Xrotation
									JOINT RightHandIndex1
									{
										OFFSET -0.622530 -0.000000 -0.000000
										CHANNELS 3 Zrotation Yrotation Xrotation
										End Site
										{
											OFFSET 0.000000 0.000000 0.000000
										}
									}
								}
								JOINT RThumb
								{
									OFFSET 0.000000 0.000000 0.000000
									CHANNELS 3 Zrotation Yrotation Xrotation
									End Site
									{
										OFFSET 0.000000 0.000000 0.000000
									}
								}
							}
						}
					}
				}
			}
		}
	}
}
MOTION
Frames: 7
Frame Time: 0.008333
-10.374337 16.953292 -1.537823 172.213954 83.428126 176.347464 -11.352586 5.557463 0.619248 1.699866 11.833209 4.088635 -0.565381 2.081576 29.678453 0.474890 -4.450194 15.180403 -1.801999 -0.000000 -78.647900 8.456082 -1.330940 0.460400 19.479078 -10.731476 -27.053591 2.897919 0.030260 15.201472 -2.600434 -10.665754 -8.668144 -0.574000 0.000000 -20.496900 -0.002100 -5.132710 -2.634727 -0.622825 -5.304339 -2.549257 -6.899043 -5.199819 3.309661 12.233706 -20.036445 -11.720392 -2.670374 -0.152588 -1.026671 0.000000 0.000000 0.000000 2.339070 16.452457 1.104871 -33.269121 3.496387 -3.583134 -1.077184 -66.653324 -0.011165 4.014658 0.259935 0.003943 -0.144957 0.185529 0.000000 0.000000 0.000000 0.000000 0.000000 0.000000 0.000000 19.558273 -18.042234 0.104520 80.293433 -17.111152 -13.985288 3.852134 20.119459 0.008696 -0.046539 4.079929 -0.005148 0.109984 -0.037383 -0.000000 0.000000 0.000000 0.000000 0.000000 0.000000 0.000000 
-10.162900 16.960176 -1.522819 172.952334 83.443414 177.002225 -11.440296 5.536398 0.631378 2.204883 11.828116 3.067400 -0.382539 2.187993 32.204221 0.602679 -4.841064 17.171207 -2.178300 0.000001 -76.019700 8.444770 -1.394237 0.441132 19.452862 -10.540211 -26.749677 2.855669 -0.114705 16.597257 -2.604993 -10.467500 -9.442205 -0.369400 -0.000000 -15.822301 0.160936 -5.061898 -2.657044 -0.591680 -5.242647 -2.568314 -6.889832 -5.141250 3.275491 12.206075 -19.814299 -11.670063 -2.676543 -0.154272 -1.012765 0.000000 0.000000 0.000000 2.164596 16.541953 1.112370 -33.914704 4.071578 -3.592380 -1.137421 -65.879340 -0.011912 4.377020 0.375744 0.009183 -0.152307 0.176524 0.000000 0.000000 0.000000 0.000000 0.000000 0.000000 0.000000 19.462018 -17.748365 0.091247 79.935471 -16.457992 -13.974543 3.867952 19.901360 0.008611 0.081041 4.017991 -0.000549 0.109255 -0.037912 -0.000000 0.000000 0.000000 0.000000 0.000000 0.000000 0.000000 
-9.955314 16.967530 -1.507661 173.746983 83.503198 177.741076 -11.524585 5.487584 0.641051 2.636667 11.776881 1.924087 -0.216955 2.281712 34.790732 0.734298 -5.013992 18.850430 -2.462100 -0.000001 -72.196100 8.426424 -1.455210 0.421169 19.473679 -10.363920 -26.420081 2.823302 -0.237714 17.850822 -2.614938 -10.286078 -10.245904 -0.164700 0.000000 -11.550700 0.320026 -4.981876 -2.671057 -0.560885 -5.171059 -2.587494 -6.876062 -5.073284 3.237723 12.181183 -19.596219 -11.622007 -2.674403 -0.155185 -0.999493 0.000000 0.000000 0.000000 2.000027 16.613368 1.120754 -34.668616 4.717426 -3.535887 -1.205525 -65.038676 -0.012427 4.703186 0.505812 0.015717 -0.159158 0.166473 -0.000000 0.000000 0.000000 0.000000 0.000000 0.000000 0.000000 19.323956 -17.453606 0.083746 79.546153 -15.703533 -13.846039 3.877627 19.734582 0.008583 0.153899 3.986922 0.002055 0.108911 -0.038776 -0.000000 0.000000 0.000000 0.000000 0.000000 0.000000 0.000000 
-9.751457 16.975285 -1.491894 174.486797 83.595134 178.452152 -11.599379 5.415387 0.648741 2.966062 11.660144 0.678796 -0.071309 2.368547 37.390463 0.858874 -4.913558 20.106654 -2.595800 0.000000 -67.453099 8.404861 -1.511309 0.400864 19.519854 -10.207757 -26.034947 2.799136 -0.333164 18.901899 -2.632941 -10.139167 -11.056934 0.035200 0.000000 -7.869100 0.458247 -4.894008 -2.676541 -0.535015 -5.089902 -2.606220 -6.862397 -4.995953 3.195149 12.163094 -19.361838 -11.573643 -2.669310 -0.155821 -0.986315 0.000000 0.000000 0.000000 1.849724 16.678047 1.131173 -35.507483 5.398728 -3.393503 -1.282267 -64.124695 -0.012610 4.971922 0.629522 0.022648 -0.165236 0.155562 0.000000 0.000000 0.000000 0.000000 0.000000 0.000000 0.000000 19.169964 -17.134592 0.078953 79.144093 -14.897775 -13.727710 3.881187 19.687997 0.008567 0.204901 3.960291 0.003860 0.108711 -0.040103 -0.000000 0.000000 0.000000 0.000000 0.000000 0.000000 0.000000 
-9.551100 16.983278 -1.475399 175.165197 83.705952 179.132173 -11.665217 5.322933 0.654247 3.195073 11.482901 -0.670314 0.056668 2.453207 39.968166 0.969611 -4.535842 20.894041 -2.557300 -0.000001 -62.238600 8.378523 -1.561931 0.385116 19.583966 -10.049363 -25.579389 2.781320 -0.398607 19.728019 -2.666183 -10.055448 -11.879305 0.232500 -0.000001 -4.705699 0.571106 -4.800403 -2.677994 -0.514271 -5.001007 -2.624704 -6.846389 -4.911141 3.150090 12.148839 -19.134074 -11.527160 -2.659415 -0.155999 -0.973696 0.000000 0.000000 0.000000 1.715928 16.724402 1.142318 -36.428425 6.119598 -3.173014 -1.367352 -63.145144 -0.012425 5.156173 0.749647 0.029571 -0.170198 0.143864 0.000000 0.000000 0.000000 0.000000 0.000000 0.000000 0.000000 18.995061 -16.817828 0.077061 78.723792 -14.036023 -13.555060 3.877088 19.755872 0.008598 0.205146 3.958581 0.003868 0.108857 -0.041913 -0.000000 0.000000 0.000000 0.000000 0.000000 0.000000 0.000000 
-9.353926 16.991453 -1.458006 175.755508 83.820694 179.753314 -11.721498 5.213186 0.659381 3.322075 11.239055 -2.113307 0.170902 2.538485 42.479156 1.063733 -3.887619 21.200367 -2.345100 -0.000000 -57.053400 8.347996 -1.605896 0.374575 19.655622 -9.882199 -25.041396 2.768575 -0.433411 20.316898 -2.717181 -10.045014 -12.710459 0.429700 0.000001 -1.982000 0.653163 -4.703015 -2.677305 -0.499811 -4.906056 -2.642812 -6.828733 -4.820427 3.103206 12.137245 -18.910848 -11.481107 -2.646666 -0.155909 -0.961259 0.000000 0.000000 0.000000 1.600940 16.754495 1.154010 -37.423334 6.860174 -2.875584 -1.461539 -62.092414 -0.011865 5.238580 0.863902 0.035987 -0.173899 0.131498 -0.000000 0.000000 0.000000 0.000000 0.000000 0.000000 0.000000 18.807719 -16.502201 0.076056 78.288154 -13.141304 -13.347501 3.865173 19.958722 0.008667 0.159495 3.980667 0.002279 0.109310 -0.044230 -0.000000 0.000000 0.000000 0.000000 0.000000 0.000000 0.000000 
-9.159520 16.999848 -1.439660 176.249089 83.925361 -179.693890 -11.768288 5.088146 0.667395 3.351727 10.921140 -3.639296 0.275217 2.624738 44.880974 1.141407 -2.995422 21.039892 -1.980800 0.000001 -52.322500 8.313706 -1.642842 0.369693 19.728765 -9.700587 -24.416990 2.759549 -0.438691 20.669186 -2.786477 -10.111767 -13.539935 -179.371900 0.000001 -0.376000 0.702891 -4.602882 -2.677925 -0.491736 -4.806077 -2.660893 -6.808887 -4.724827 3.055187 12.125550 -18.699037 -11.434061 -2.631732 -0.155641 -0.948559 0.000000 0.000000 0.000000 1.504735 16.761348 1.165212 -38.486238 7.614241 -2.509838 -1.565074 -60.963668 -0.010980 5.207120 0.973280 0.041592 -0.176263 0.118557 -0.000000 0.000000 0.000000 0.000000 0.000000 0.000000 0.000000 18.610253 -16.196622 0.075075 77.834574 -12.227639 -13.091624 3.845464 20.300932 0.008771 0.067357 4.027781 -0.001007 0.110080 -0.047023 -0.000000 0.000000 0.000000 0.000000 0.000000 0.000000 0.000000 
